<?xml version="1.0" encoding="utf-8"?><svg viewBox="0 0 53 53" xmlns="http://www.w3.org/2000/svg" xmlns:xlink="http://www.w3.org/1999/xlink"><style>:root>svg{display:none}:root>svg:target{display:block}</style><svg fill="none" viewBox="0 0 41 41" id="main-page--money" xmlns="http://www.w3.org/2000/svg"><path d="M27.383 26.294c-.972 0-1.762-.684-1.762-1.524 0-.841.79-1.525 1.762-1.525.971 0 1.762.684 1.762 1.524a.8.8 0 001.601 0c0-1.467-1.093-2.7-2.562-3.036v-.416a.8.8 0 00-1.602 0v.416c-1.47.335-2.563 1.57-2.563 3.037 0 1.723 1.51 3.126 3.364 3.126.971 0 1.762.684 1.762 1.525 0 .84-.79 1.524-1.762 1.524s-1.762-.683-1.762-1.524a.8.8 0 00-1.601 0c0 1.467 1.093 2.701 2.562 3.036v.346a.8.8 0 001.602 0v-.346c1.469-.335 2.562-1.569 2.562-3.036 0-1.724-1.509-3.127-3.363-3.127zM36.154 21.531a10.434 10.434 0 00-4.262-3.772.8.8 0 10-.694 1.444 8.862 8.862 0 014.997 7.944c0 1.44-.355 2.868-1.027 4.13a.8.8 0 001.414.753 10.43 10.43 0 001.215-4.884c0-1.998-.569-3.94-1.643-5.615zM28.642 16.736h-.054a.8.8 0 000 1.602h.05a.8.8 0 00.004-1.602zM23.575 35.09a8.862 8.862 0 01-4.997-7.944c0-1.44.355-2.869 1.027-4.13a.8.8 0 00-1.414-.753 10.432 10.432 0 00-1.214 4.883c0 2 .568 3.941 1.643 5.616a10.436 10.436 0 004.261 3.772.798.798 0 001.07-.375.8.8 0 00-.376-1.069zM26.186 35.955h-.047a.8.8 0 10-.007 1.601h.054a.8.8 0 000-1.601z" fill="#333"/><path d="M31.023 14.027a3.67 3.67 0 00-.356-.654h2.085a3.688 3.688 0 003.683-3.684 3.688 3.688 0 00-3.683-3.683h-6.413c.408-.593.647-1.31.647-2.082A3.688 3.688 0 0023.303.24H3.683A3.688 3.688 0 000 3.924a3.688 3.688 0 003.684 3.683h6.412A3.662 3.662 0 009.45 9.69c0 .773.24 1.49.647 2.082H8.008a3.688 3.688 0 00-3.684 3.684c0 1.167.546 2.208 1.395 2.883a3.677 3.677 0 000 5.765 3.677 3.677 0 000 5.766 3.678 3.678 0 00-1.395 2.883 3.688 3.688 0 003.684 3.683h9.437a13.577 13.577 0 009.942 4.325C34.893 40.76 41 34.653 41 27.147c0-6.248-4.23-11.525-9.977-13.12zm1.729-6.42c1.148 0 2.082.934 2.082 2.082a2.084 2.084 0 01-2.082 2.082H13.133A2.084 2.084 0 0111.05 9.69c0-1.148.934-2.082 2.082-2.082h19.619zM3.684 6.006a2.084 2.084 0 01-2.082-2.082c0-1.148.934-2.082 2.082-2.082h19.619c1.148 0 2.082.934 2.082 2.082a2.084 2.084 0 01-2.082 2.082H3.683zm4.324 7.367h19.619c.323 0 .631.075.908.21a13.571 13.571 0 00-10.782 3.955H8.008a2.084 2.084 0 01-2.082-2.083c0-1.148.934-2.082 2.082-2.082zm0 5.766h8.377a13.575 13.575 0 00-2.058 4.164h-6.32a2.084 2.084 0 01-2.081-2.082c0-1.148.934-2.082 2.082-2.082zm0 5.765h5.951a13.642 13.642 0 00-.05 4.164H8.009a2.084 2.084 0 01-2.082-2.082c0-1.148.934-2.082 2.082-2.082zm0 9.93a2.084 2.084 0 01-2.082-2.082c0-1.148.934-2.082 2.082-2.082h6.229a13.558 13.558 0 001.921 4.164h-8.15zm19.379 4.324c-6.623 0-12.012-5.388-12.012-12.012 0-6.623 5.389-12.011 12.012-12.011s12.011 5.388 12.011 12.011c0 6.624-5.388 12.012-12.011 12.012z" fill="#333"/></svg><svg fill="none" viewBox="0 0 53 53" id="main-page--phone" xmlns="http://www.w3.org/2000/svg"><path d="M40.947 28.648a2.78 2.78 0 00-3.935 0l-4.437 4.437c-2.057-.613-5.895-2.004-8.327-4.437-2.433-2.432-3.824-6.27-4.437-8.327l4.437-4.437a2.782 2.782 0 000-3.935L13.115.816a2.78 2.78 0 00-3.935 0L1.632 8.364A5.562 5.562 0 000 12.358c.064 3.963 1.113 17.73 11.962 28.578 10.849 10.849 24.615 11.895 28.58 11.962h.079a5.5 5.5 0 003.91-1.63l7.548-7.549a2.78 2.78 0 000-3.935L40.947 28.648zm-.353 18.681c-3.474-.058-15.358-.99-24.696-10.331C6.53 27.63 5.623 15.703 5.567 12.3l5.58-5.58 7.198 7.197-3.599 3.598a2.783 2.783 0 00-.757 2.539c.067.32 1.7 7.91 6.32 12.53 4.62 4.62 12.21 6.253 12.53 6.32a2.758 2.758 0 002.539-.754l3.602-3.599 7.197 7.198-5.583 5.58z" fill="#FDF7F7"/></svg><svg fill="none" viewBox="0 0 40 38" id="main-page--triggerTwo" xmlns="http://www.w3.org/2000/svg"><path d="M34.033 11.168a.811.811 0 00-.116-.281.75.75 0 00-.217-.216.781.781 0 10.333.497z" fill="#333"/><path d="M39.219.108H.78A.781.781 0 000 .89v6.754c0 .431.35.781.781.781h1.095V37.11c0 .432.35.782.781.782h34.686c.431 0 .781-.35.781-.782V8.425h1.095c.431 0 .781-.35.781-.781V.89a.781.781 0 00-.781-.782zM14.85 1.671h10.3v5.191h-10.3V1.671zm0 6.754h10.3v10.206l-1.74-1.208a.781.781 0 00-.891 0L20 19.17l-2.519-1.747a.78.78 0 00-.89 0l-1.74 1.208V8.425zM1.563 6.862V1.671h11.725v5.191H1.562zm11.725 1.563v2.114h-9.85V8.425h9.85zm7.927 14.12v13.784H3.438V12.101h9.85v8.022a.781.781 0 001.226.642l2.522-1.749 2.519 1.746a.781.781 0 00.89 0l2.519-1.746 2.522 1.75a.78.78 0 001.226-.642V12.1h3.427a.781.781 0 100-1.562h-3.427V8.425h9.85v13.339H21.996a.781.781 0 00-.781.78zm15.347 13.784H22.777V23.326h13.785v13.003zm1.876-29.467H26.712V1.671h11.726v5.191z" fill="#333"/><path d="M35.202 28.153c-.176-1.739-1.586-3.047-3.292-3.047-.83 0-1.582.334-2.151.928-.616-.574-1.45-.928-2.295-.928-1.69 0-2.991 1.252-3.17 3.047-.024.16-.058.58.096 1.2.233.937.767 1.786 1.55 2.46l3.256 2.747a.85.85 0 00.552.202.85.85 0 00.551-.201l3.262-2.753c.778-.668 1.312-1.517 1.545-2.455.154-.62.12-1.041.096-1.2zm-1.613.824c-.154.621-.516 1.19-1.04 1.642l-2.801 2.363-2.795-2.358c-.53-.457-.892-1.026-1.047-1.647a1.9 1.9 0 01-.069-.581c.008-.03.006-.03.01-.071.077-.825.607-1.656 1.617-1.656.667 0 1.345.434 1.611 1.033a.781.781 0 001.428 0c.172-.386.582-1.033 1.407-1.033.918 0 1.65.696 1.74 1.656.003.04 0 .04.008.07a1.9 1.9 0 01-.069.582z" fill="#333"/></svg><svg fill="none" viewBox="0 0 52 40" id="main-page--truck" xmlns="http://www.w3.org/2000/svg"><path d="M44.202 32.935c0 2.86-1.733 5.2-3.9 5.2s-3.9-2.34-3.9-5.2c0-2.86 1.733-5.2 3.9-5.2s3.9 2.34 3.9 5.2zM13.088 32.935c0 2.86-1.734 5.2-3.9 5.2-2.167 0-3.9-2.34-3.9-5.2 0-2.86 1.733-5.2 3.9-5.2 2.166 0 3.9 2.34 3.9 5.2z" fill="#FECC00"/><path d="M50.27 16.467h-5.201l-7.194-7.973c-.347-.434-.953-.694-1.474-.694h-9.533V3.38A2.515 2.515 0 0024.354.866H5.98A2.515 2.515 0 003.466 3.38v19.154h23.402v10.401h9.534c0-2.86 2.34-5.2 5.2-5.2 2.86 0 5.2 2.34 5.2 5.2h3.207c.607 0 1.127-.52 1.127-1.127V18.114c0-.52-.52-1.3-.867-1.647z" fill="#FED100"/><path d="M27.735 23.401H0V3.381C0 1.472 1.473 0 3.38 0h21.061c1.82 0 3.294 1.473 3.294 3.38v20.021zM1.733 21.668h24.268V3.38c0-.866-.693-1.647-1.646-1.647H3.38c-.953 0-1.647.694-1.647 1.647v18.288zM41.602 39.002a6.03 6.03 0 01-6.067-6.067 6.03 6.03 0 016.067-6.067 6.03 6.03 0 016.067 6.067 6.03 6.03 0 01-6.067 6.067zm0-10.4a4.292 4.292 0 00-4.334 4.333 4.291 4.291 0 004.334 4.334 4.291 4.291 0 004.334-4.334 4.292 4.292 0 00-4.334-4.334zM10.401 39.002a6.03 6.03 0 01-6.067-6.067 6.03 6.03 0 016.067-6.067 6.03 6.03 0 016.067 6.067 6.03 6.03 0 01-6.067 6.067zm0-10.4a4.292 4.292 0 00-4.334 4.333 4.291 4.291 0 004.334 4.334 4.291 4.291 0 004.334-4.334 4.292 4.292 0 00-4.334-4.334zM50.703 23.401H35.97c-.52 0-.867-.346-.867-.866s.347-.867.867-.867h14.734c.52 0 .867.347.867.867s-.347.866-.867.866z" fill="#333"/><path d="M13.867 15.6h-13c-.52 0-.867-.346-.867-.866s.347-.867.867-.867h13c.52 0 .867.347.867.867s-.347.867-.867.867zM10.4 11.267H.868c-.52 0-.867-.347-.867-.867s.347-.866.867-.866H10.4c.52 0 .866.346.866.866s-.346.867-.866.867zM49.23 33.802h-3.294v-.867a4.291 4.291 0 00-4.334-4.333 4.291 4.291 0 00-4.334 4.333v.867H26.001V6.934h10.66c1.214 0 2.254.52 3.034 1.473l5.72 7.194.087.087h3.64c1.56 0 2.774 1.3 2.774 2.773v12.567c.087 1.474-1.213 2.774-2.687 2.774zm-1.648-1.733h1.56c.607 0 1.04-.52 1.04-1.127v-12.48c0-.608-.52-1.041-1.04-1.041h-3.64c-.606 0-1.126-.26-1.473-.693l-5.72-7.194c-.347-.607-.954-.867-1.647-.867h-8.927v23.401h7.887c.433-2.946 2.947-5.2 5.98-5.2 3.034 0 5.547 2.254 5.98 5.2z" fill="#333"/><path d="M27.735 33.802h-13v-.867a4.292 4.292 0 00-4.334-4.333 4.291 4.291 0 00-4.334 4.333v.867H2.6c-1.473 0-2.6-1.127-2.6-2.6v-9.534h27.735v12.134zM16.38 32.069H26V23.4H1.733v7.8c0 .52.347.867.867.867h1.82c.434-2.946 2.947-5.2 5.98-5.2 3.034 0 5.547 2.254 5.98 5.2z" fill="#333"/><path d="M12.134 32.935c0 .953-.78 1.733-1.734 1.733-.953 0-1.733-.78-1.733-1.733 0-.953.78-1.734 1.733-1.734.954 0 1.734.78 1.734 1.734zM43.336 32.935c0 .953-.78 1.733-1.733 1.733-.954 0-1.734-.78-1.734-1.733 0-.953.78-1.734 1.733-1.734.954 0 1.734.78 1.734 1.734zM44.81 14.734H33.541a2.33 2.33 0 01-2.34-2.34v-5.46h5.46c1.214 0 2.254.52 3.034 1.473l5.113 6.327zM32.934 8.667v3.727c0 .347.26.607.607.607h7.714l-2.86-3.554c-.434-.52-1.04-.78-1.734-.78h-3.727z" fill="#333"/></svg></svg>